<svg width="135" height="34" viewBox="0 0 135 34" fill="none" xmlns="http://www.w3.org/2000/svg">
<g clip-path="url(#clip0_15_115)">
<path d="M53.5945 12.1032H57.8207V25.3964H53.5945V12.1032Z" fill="#E60023"/>
<mask id="mask0_15_115" style="mask-type:luminance" maskUnits="userSpaceOnUse" x="0" y="0" width="135" height="34">
<path d="M0.885742 0.300558H134.686V33.0446H0.885742V0.300558Z" fill="white"/>
</mask>
<g mask="url(#mask0_15_115)">
<path d="M58.7031 12.1032H62.7736V13.9206H62.8513C63.8366 12.4926 65.107 11.7138 66.9479 11.7138C69.8516 11.7138 71.5628 13.7908 71.5628 16.7506V25.3964H67.3367V17.6075C67.3367 16.2054 66.6367 15.2447 65.2626 15.2447C63.8626 15.2447 62.9292 16.4131 62.9292 18.0487V25.3964H58.7031V12.1032Z" fill="#E60023"/>
<path d="M58.2426 8.54676C58.2426 7.14466 57.1075 6.00818 55.7075 6.00818C54.3075 6.00818 53.1725 7.14466 53.1725 8.54676C53.1725 9.94873 54.3075 11.0852 55.7075 11.0852C57.1075 11.0852 58.2426 9.94873 58.2426 8.54676Z" fill="#E60023"/>
<path d="M101.285 11.9112C101.165 11.9003 101.027 11.8955 100.865 11.8955C99.2573 11.8955 98.1684 12.5965 97.235 14.1802H97.1573V12.1032H93.1127V25.3962H97.3387V19.4248C97.3387 16.6579 98.8688 15.3758 101.285 15.5995V11.9112Z" fill="#E60023"/>
<path d="M122.024 17.0101C120.339 16.6987 118.835 16.5689 118.835 15.6342C118.835 14.8033 119.639 14.4139 120.676 14.4139C121.843 14.4139 122.647 14.7774 122.802 15.9717H126.691C126.484 13.3495 124.461 11.7137 120.702 11.7137C117.565 11.7137 114.972 13.1677 114.972 15.9717C114.972 19.0871 117.435 19.7103 119.743 20.0998C121.506 20.4114 123.113 20.5412 123.113 21.7355C123.113 22.5923 122.31 23.0596 121.039 23.0596C119.765 23.0596 118.922 22.5196 118.663 21.424H114.636C114.933 24.1567 117.328 25.8117 121.065 25.8117C124.539 25.8117 127.106 24.3059 127.106 21.3981C127.106 17.9968 124.358 17.3996 122.024 17.0101Z" fill="#E60023"/>
<path d="M107.841 14.7254C109.215 14.7254 110.2 15.738 110.356 17.3219H105.119C105.404 15.738 106.234 14.7254 107.841 14.7254ZM108.074 22.748C106.337 22.748 105.352 21.6317 105.093 19.8402H114.634C114.66 17.1401 113.882 14.8293 112.3 13.3755C111.16 12.3369 109.656 11.7138 107.763 11.7138C103.719 11.7138 100.945 14.7514 100.945 18.7239C100.945 22.748 103.641 25.7858 108.022 25.7858C109.708 25.7858 111.056 25.3444 112.171 24.5655C113.337 23.7607 114.115 22.6183 114.4 21.4241H110.278C109.915 22.2548 109.189 22.748 108.074 22.748Z" fill="#E60023"/>
<path d="M134.549 22.2617C134.353 22.2695 134.09 22.2809 133.849 22.2809C132.941 22.2809 132.371 22.0211 132.371 20.9826V14.7515H134.549V12.1032H132.371V7.89722H128.248V12.1032H126.951V14.7515H128.248V21.8913C128.248 24.7474 130.012 25.5521 132.475 25.5521C133.414 25.5521 134.125 25.4817 134.549 25.3988V22.2617Z" fill="#E60023"/>
<path d="M79.1098 22.2677C78.9412 22.2743 78.7466 22.2808 78.5648 22.2808C77.6575 22.2808 77.087 22.0211 77.087 20.9826V14.7514H79.1098V12.1032H77.087V7.89715H72.9647V12.1032H71.59V14.7514H72.9647V21.8913C72.9647 24.7473 74.7276 25.5521 77.1907 25.5521C78.0241 25.5521 78.6766 25.4965 79.1098 25.4262V22.2677Z" fill="#E60023"/>
<path d="M88.3149 17.3218C88.1594 15.7381 87.174 14.7254 85.7999 14.7254C84.1925 14.7254 83.3629 15.7381 83.0776 17.3218H88.3149ZM78.9035 18.7238C78.9035 14.7514 81.6776 11.7138 85.7222 11.7138C87.6148 11.7138 89.1186 12.3369 90.2594 13.3754C91.841 14.8294 92.6187 17.14 92.5928 19.8402H83.0518C83.3109 21.6316 84.2962 22.748 86.0334 22.748C87.1481 22.748 87.8742 22.2548 88.237 21.424H92.3594C92.0742 22.6182 91.2965 23.7606 90.1297 24.5656C89.0149 25.3444 87.6667 25.7858 85.9815 25.7858C81.5998 25.7858 78.9035 22.748 78.9035 18.7238Z" fill="#E60023"/>
<path d="M46.2553 15.5563C47.9147 15.5563 48.848 14.5697 48.848 13.0897C48.848 11.6099 47.8886 10.7012 46.2553 10.7012H43.0143V15.5563H46.2553ZM38.7358 6.83268H46.0745C48.3301 6.83268 49.9894 7.45573 51.1302 8.54624C52.3229 9.66255 52.997 11.2464 52.997 13.1157C52.997 16.6726 50.5339 19.1912 46.7226 19.1912H43.0143V25.3963H38.7358V6.83268Z" fill="#E60023"/>
<path d="M32.9346 16.6726C32.9346 25.497 25.7909 32.6506 16.9789 32.6506C8.16693 32.6506 1.02332 25.497 1.02332 16.6726C1.02332 7.8481 8.16693 0.694589 16.9789 0.694589C25.7909 0.694589 32.9346 7.8481 32.9346 16.6726Z" fill="white"/>
<path d="M16.9787 0.694345C8.16672 0.694345 1.0231 7.84799 1.0231 16.6724C1.0231 23.4415 5.22873 29.2281 11.1641 31.5562C11.0247 30.292 10.8986 28.3478 11.2194 26.9677C11.5094 25.7207 13.0904 19.0256 13.0904 19.0256C13.0904 19.0256 12.6131 18.0684 12.6131 16.6534C12.6131 14.4316 13.8991 12.773 15.5002 12.773C16.8615 12.773 17.519 13.7964 17.519 15.0236C17.519 16.3946 16.6474 18.4442 16.1976 20.3436C15.8217 21.9339 16.994 23.2309 18.5604 23.2309C21.3962 23.2309 23.5761 20.2365 23.5761 15.9141C23.5761 12.0885 20.8311 9.41368 16.9114 9.41368C12.3714 9.41368 9.70667 12.8236 9.70667 16.3477C9.70667 17.721 10.2349 19.1935 10.8941 19.9941C11.0245 20.1523 11.0436 20.2908 11.0048 20.4523C10.8837 20.957 10.6145 22.0423 10.5617 22.2644C10.4921 22.5569 10.3304 22.6189 10.028 22.478C8.03527 21.5491 6.78934 18.6315 6.78934 16.2881C6.78934 11.2479 10.4463 6.61904 17.3319 6.61904C22.8669 6.61904 27.1682 10.5688 27.1682 15.8472C27.1682 21.3538 23.7011 25.7855 18.8887 25.7855C17.2718 25.7855 15.7519 24.9444 15.2316 23.9508C15.2316 23.9508 14.4315 27.0015 14.2376 27.7491C13.8774 29.137 12.9049 30.8766 12.2545 31.9379C13.7474 32.4008 15.3339 32.6504 16.9787 32.6504C25.7909 32.6504 32.9345 25.4967 32.9345 16.6724C32.9345 7.84799 25.7909 0.694345 16.9787 0.694345Z" fill="#E60023"/>
</g>
</g>
<defs>
<clipPath id="clip0_15_115">
<rect width="133.801" height="32.744" fill="white" transform="translate(0.885742 0.300598)"/>
</clipPath>
</defs>
</svg>
