<svg width="135" height="43" viewBox="0 0 135 43" fill="none" xmlns="http://www.w3.org/2000/svg">
<path d="M17.18 15.6698V20.1481H27.9873C27.7004 22.6254 26.8396 24.5311 25.5007 25.7697C23.9704 27.2942 21.4838 29.0093 17.18 29.0093C10.5808 29.0093 5.41622 23.6735 5.41622 17.0991C5.41622 10.5246 10.4851 5.18877 17.18 5.18877C20.7186 5.18877 23.3966 6.61801 25.3094 8.42837L28.4655 5.28406C25.7876 2.71144 22.1532 0.71051 17.18 0.71051C8.09414 0.71051 0.442932 8.04724 0.442932 17.0991C0.442932 26.1509 8.09414 33.4876 17.18 33.4876C22.0576 33.4876 25.7876 31.8678 28.6568 28.914C31.6216 25.9603 32.578 21.7679 32.578 18.433C32.578 17.3849 32.4824 16.4321 32.3867 15.6698H17.18Z" fill="#4285F4"/>
<path d="M45.9676 11.9538C40.1336 11.9538 35.256 16.4321 35.256 22.5301C35.256 28.6282 40.038 33.1064 45.9676 33.1064C51.8973 33.1064 56.6793 28.7235 56.6793 22.6254C56.6793 16.4321 51.8973 11.9538 45.9676 11.9538ZM45.9676 29.0093C42.7159 29.0093 39.9423 26.3414 39.9423 22.6254C39.9423 18.8141 42.7159 16.2415 45.9676 16.2415C49.2194 16.2415 51.993 18.8141 51.993 22.6254C51.993 26.3414 49.2194 29.0093 45.9676 29.0093Z" fill="#EA4335"/>
<path d="M98.2828 14.3359H98.0915C97.0395 13.0972 95.0311 11.9538 92.4488 11.9538C87.0929 11.9538 82.5022 16.5273 82.5022 22.5301C82.5022 28.4376 87.0929 33.1065 92.4488 33.1065C95.0311 33.1065 97.0395 31.9631 98.0915 30.7244H98.2828V32.2489C98.2828 36.2508 96.0831 38.4423 92.6401 38.4423C89.7708 38.4423 88.0493 36.4413 87.2842 34.631L83.2673 36.346C84.415 39.1092 87.5711 42.6347 92.7357 42.6347C98.1872 42.6347 102.874 39.3951 102.874 31.5819V12.5255H98.4741V14.3359H98.2828ZM92.927 29.0093C89.6752 29.0093 87.2842 26.2461 87.2842 22.6254C87.2842 18.9094 89.7708 16.2415 92.927 16.2415C96.0831 16.2415 98.5697 19.0047 98.5697 22.7207C98.6654 26.3414 96.1787 29.0093 92.927 29.0093Z" fill="#4285F4"/>
<path d="M69.782 11.9538C63.948 11.9538 59.0703 16.4321 59.0703 22.5301C59.0703 28.6282 63.8524 33.1064 69.782 33.1064C75.7117 33.1064 80.4937 28.7235 80.4937 22.6254C80.4937 16.4321 75.7117 11.9538 69.782 11.9538ZM69.782 29.0093C66.5303 29.0093 63.7567 26.3414 63.7567 22.6254C63.7567 18.8141 66.5303 16.2415 69.782 16.2415C73.0338 16.2415 75.8074 18.8141 75.8074 22.6254C75.8074 26.3414 73.0338 29.0093 69.782 29.0093Z" fill="#FBBC05"/>
<path d="M106.412 1.18689H111.003V33.2017H106.412V1.18689Z" fill="#34A853"/>
<path d="M125.158 29.0093C122.767 29.0093 121.141 27.9612 119.993 25.7697L134.243 19.9575L133.765 18.7188C132.905 16.3368 130.131 11.9538 124.679 11.9538C119.228 11.9538 114.637 16.2415 114.637 22.5301C114.637 28.4376 119.132 33.1064 125.158 33.1064C130.035 33.1064 132.809 30.1527 134.052 28.4376L130.418 26.0556C129.175 27.8659 127.549 29.0093 125.158 29.0093ZM124.871 15.9556C126.784 15.9556 128.409 16.9085 128.888 18.2424L119.324 22.2443C119.228 17.8613 122.48 15.9556 124.871 15.9556Z" fill="#EA4335"/>
</svg>
