<svg width="134" height="41" viewBox="0 0 134 41" fill="none" xmlns="http://www.w3.org/2000/svg">
<g clip-path="url(#clip0_15_95)">
<path d="M32.4589 18.4272C26.0881 14.6396 15.5796 14.2914 9.49783 16.1393C8.52115 16.4358 7.48843 15.8839 7.1925 14.9062C6.89656 13.928 7.44731 12.8948 8.42463 12.5976C15.4061 10.4758 27.0116 10.8858 34.3458 15.2443C35.2245 15.7662 35.5126 16.9019 34.9918 17.7801C34.4706 18.6594 33.3352 18.9493 32.4589 18.4272ZM32.2503 24.0373C31.8035 24.7634 30.8552 24.9909 30.1309 24.5453C24.8195 21.2769 16.7203 20.33 10.4366 22.2395C9.62174 22.486 8.76103 22.0261 8.5136 21.2118C8.26799 20.396 8.72766 19.5359 9.54107 19.2878C16.7194 17.1073 25.643 18.1634 31.7433 21.9165C32.4676 22.3631 32.6956 23.313 32.2503 24.0373ZM29.8319 29.425C29.4769 30.0079 28.7184 30.1907 28.1383 29.8354C23.497 26.9957 17.6553 26.3542 10.7757 27.9275C10.1126 28.0797 9.452 27.6637 9.30072 27.0002C9.14889 26.3365 9.56273 25.6752 10.2272 25.5237C17.7558 23.8007 24.2139 24.5423 29.4234 27.7291C30.0042 28.0841 30.1871 28.8438 29.8319 29.425ZM20.7679 0.886536C9.85267 0.886536 1.00371 9.74482 1.00371 20.6722C1.00371 31.6006 9.85267 40.4587 20.7679 40.4587C31.6836 40.4587 40.5321 31.6006 40.5321 20.6722C40.5321 9.74482 31.6836 0.886536 20.7679 0.886536Z" fill="#1ED760"/>
<path d="M54.7752 19.1524C51.3627 18.3378 50.755 17.7659 50.755 16.5648C50.755 15.4295 51.8227 14.6659 53.4101 14.6659C54.9489 14.6659 56.4745 15.2459 58.0744 16.44C58.1228 16.4762 58.1834 16.4906 58.2431 16.4811C58.3028 16.4722 58.3555 16.4396 58.3906 16.3899L60.0568 14.0386C60.1253 13.9419 60.1066 13.8082 60.0144 13.7343C58.1105 12.2049 55.9666 11.4613 53.4606 11.4613C49.7761 11.4613 47.2024 13.6747 47.2024 16.8422C47.2024 20.2387 49.4225 21.4411 53.2591 22.3694C56.5245 23.1224 57.0756 23.7532 57.0756 24.8811C57.0756 26.1307 55.9611 26.9076 54.1677 26.9076C52.176 26.9076 50.5511 26.2359 48.7336 24.6601C48.6885 24.6214 48.6267 24.6035 48.5696 24.6067C48.5096 24.6117 48.4546 24.6396 48.4164 24.6856L46.5482 26.9116C46.4698 27.004 46.4797 27.1419 46.5701 27.2218C48.685 29.1117 51.2856 30.1102 54.0922 30.1102C58.0626 30.1102 60.6282 27.9382 60.6282 24.5767C60.6282 21.7358 58.9327 20.1647 54.7752 19.1524Z" fill="#1ED760"/>
<path d="M72.4931 22.9599C72.4931 25.3588 71.0171 27.0327 68.9036 27.0327C66.8143 27.0327 65.2382 25.2827 65.2382 22.9599C65.2382 20.6374 66.8143 18.8872 68.9036 18.8872C70.9831 18.8872 72.4931 20.5996 72.4931 22.9599ZM69.611 15.7832C67.89 15.7832 66.4784 16.4617 65.3144 17.8522V16.2871C65.3144 16.1636 65.2144 16.0629 65.0909 16.0629H62.0356C61.9121 16.0629 61.8123 16.1636 61.8123 16.2871V33.6772C61.8123 33.8008 61.9121 33.9014 62.0356 33.9014H65.0909C65.2144 33.9014 65.3144 33.8008 65.3144 33.6772V28.1881C66.4787 29.4961 67.8905 30.135 69.611 30.135C72.8087 30.135 76.0457 27.6706 76.0457 22.9599C76.0457 18.2481 72.8087 15.7832 69.611 15.7832Z" fill="#1ED760"/>
<path d="M84.3434 27.0578C82.153 27.0578 80.5016 25.2959 80.5016 22.9599C80.5016 20.6141 82.0958 18.9117 84.2929 18.9117C86.4974 18.9117 88.1599 20.6735 88.1599 23.0111C88.1599 25.3567 86.5548 27.0578 84.3434 27.0578ZM84.3434 15.7832C80.2252 15.7832 76.999 18.9578 76.999 23.0111C76.999 27.0204 80.2031 30.1617 84.2929 30.1617C88.4256 30.1617 91.6618 26.9978 91.6618 22.9599C91.6618 18.9355 88.4478 15.7832 84.3434 15.7832Z" fill="#1ED760"/>
<path d="M100.456 16.063H97.0935V12.6214C97.0935 12.4979 96.9939 12.3974 96.8705 12.3974H93.8153C93.6917 12.3974 93.5911 12.4979 93.5911 12.6214V16.063H92.122C91.9988 16.063 91.8994 16.1636 91.8994 16.2872V18.9161C91.8994 19.0396 91.9988 19.1402 92.122 19.1402H93.5911V25.9429C93.5911 28.6919 94.9579 30.0856 97.6533 30.0856C98.7493 30.0856 99.6587 29.859 100.516 29.3726C100.585 29.3336 100.629 29.2585 100.629 29.1786V26.6751C100.629 26.5978 100.588 26.525 100.522 26.4844C100.456 26.4426 100.373 26.4405 100.305 26.4743C99.7163 26.7707 99.1473 26.9076 98.5112 26.9076C97.5311 26.9076 97.0935 26.4622 97.0935 25.4635V19.1402H100.456C100.579 19.1402 100.679 19.0396 100.679 18.9161V16.2872C100.679 16.1636 100.579 16.063 100.456 16.063Z" fill="#1ED760"/>
<path d="M112.171 16.0764V15.6537C112.171 14.4102 112.647 13.8557 113.715 13.8557C114.352 13.8557 114.864 13.9823 115.437 14.1737C115.507 14.1959 115.581 14.1848 115.638 14.1425C115.697 14.1002 115.731 14.0324 115.731 13.9606V11.3829C115.731 11.2843 115.667 11.1972 115.573 11.1683C114.967 10.9881 114.193 10.8028 113.033 10.8028C110.211 10.8028 108.719 12.3939 108.719 15.4023V16.0497H107.251C107.128 16.0497 107.027 16.1501 107.027 16.2737V18.9161C107.027 19.0396 107.128 19.1401 107.251 19.1401H108.719V29.6329C108.719 29.7565 108.819 29.8569 108.942 29.8569H111.997C112.121 29.8569 112.221 29.7565 112.221 29.6329V19.1401H115.074L119.444 29.6301C118.948 30.7323 118.46 30.9516 117.794 30.9516C117.256 30.9516 116.689 30.7906 116.109 30.4732C116.055 30.4431 115.991 30.4382 115.932 30.4564C115.873 30.4771 115.824 30.5204 115.799 30.5774L114.764 32.8519C114.714 32.9593 114.756 33.0856 114.86 33.1413C115.941 33.7275 116.917 33.9777 118.123 33.9777C120.379 33.9777 121.626 32.9254 122.726 30.0948L128.027 16.3817C128.053 16.3127 128.046 16.2349 128.003 16.1735C127.961 16.113 127.894 16.0764 127.82 16.0764H124.639C124.543 16.0764 124.458 16.1369 124.427 16.2264L121.168 25.5445L117.599 16.2203C117.567 16.1336 117.483 16.0764 117.391 16.0764H112.171Z" fill="#1ED760"/>
<path d="M105.379 16.0629H102.324C102.2 16.0629 102.1 16.1636 102.1 16.2872V29.6329C102.1 29.7565 102.2 29.8569 102.324 29.8569H105.379C105.503 29.8569 105.603 29.7565 105.603 29.6329V16.2872C105.603 16.1636 105.503 16.0629 105.379 16.0629Z" fill="#1ED760"/>
<path d="M103.867 9.98628C102.657 9.98628 101.674 10.9675 101.674 12.1791C101.674 13.3917 102.657 14.3738 103.867 14.3738C105.077 14.3738 106.058 13.3917 106.058 12.1791C106.058 10.9675 105.077 9.98628 103.867 9.98628Z" fill="#1ED760"/>
<path d="M130.761 17.3905H130.201V18.1052H130.761C131.04 18.1052 131.207 17.9683 131.207 17.7476C131.207 17.5151 131.04 17.3905 130.761 17.3905ZM131.124 18.41L131.732 19.2626H131.219L130.671 18.4806H130.201V19.2626H129.772V17.0028H130.778C131.302 17.0028 131.647 17.2715 131.647 17.7236C131.647 18.094 131.434 18.3204 131.124 18.41ZM130.647 16.251C129.545 16.251 128.712 17.1273 128.712 18.2009C128.712 19.2737 129.54 20.1385 130.636 20.1385C131.737 20.1385 132.571 19.2626 132.571 18.1886C132.571 17.1157 131.743 16.251 130.647 16.251ZM130.636 20.3538C129.426 20.3538 128.485 19.3815 128.485 18.2009C128.485 17.0201 129.439 16.0367 130.647 16.0367C131.856 16.0367 132.797 17.009 132.797 18.1886C132.797 19.3694 131.845 20.3538 130.636 20.3538Z" fill="#1ED760"/>
</g>
<defs>
<clipPath id="clip0_15_95">
<rect width="133.801" height="40.1756" fill="white" transform="translate(0.00012207 0.584778)"/>
</clipPath>
</defs>
</svg>
