<svg width="135" height="65" viewBox="0 0 135 65" fill="none" xmlns="http://www.w3.org/2000/svg">
<path fill-rule="evenodd" clip-rule="evenodd" d="M118.691 33.2889C118.691 25.9508 115.145 20.1606 108.37 20.1606C101.565 20.1606 97.4483 25.9508 97.4483 33.2315C97.4483 41.8595 102.309 46.2165 109.285 46.2165C112.687 46.2165 115.26 45.4426 117.204 44.3533V38.6205C115.26 39.595 113.03 40.197 110.199 40.197C107.426 40.197 104.967 39.2224 104.653 35.84H118.633C118.633 35.4674 118.691 33.9768 118.691 33.2889ZM104.567 30.5658C104.567 27.3267 106.54 25.9795 108.341 25.9795C110.085 25.9795 111.943 27.3267 111.943 30.5658H104.567Z" fill="#635BFF"/>
<path fill-rule="evenodd" clip-rule="evenodd" d="M86.4126 20.1606C83.6108 20.1606 81.8097 21.4791 80.809 22.3964L80.4374 20.6192H74.1476V54.0419L81.295 52.5227L81.3236 44.4107C82.3529 45.1559 83.8681 46.2165 86.384 46.2165C91.5016 46.2165 96.1618 42.0888 96.1618 33.0022C96.1332 24.6896 91.4159 20.1606 86.4126 20.1606ZM84.6972 39.9103C83.0104 39.9103 82.0098 39.3084 81.3236 38.5631L81.295 27.9286C82.0384 27.0974 83.0676 26.5241 84.6972 26.5241C87.2989 26.5241 89.1001 29.4478 89.1001 33.2029C89.1001 37.0439 87.3275 39.9103 84.6972 39.9103Z" fill="#635BFF"/>
<path fill-rule="evenodd" clip-rule="evenodd" d="M64.3127 18.4694L71.4887 16.9215V11.1027L64.3127 12.6219V18.4694Z" fill="#635BFF"/>
<path d="M71.4887 20.6479H64.3127V45.7292H71.4887V20.6479Z" fill="#635BFF"/>
<path fill-rule="evenodd" clip-rule="evenodd" d="M56.6219 22.769L56.1645 20.6479H49.9891V45.7292H57.1365V28.7312C58.8233 26.5241 61.6823 26.9254 62.5686 27.2407V20.6479C61.6537 20.3039 58.3087 19.6733 56.6219 22.769Z" fill="#635BFF"/>
<path fill-rule="evenodd" clip-rule="evenodd" d="M42.327 14.4277L35.3511 15.9182L35.3225 38.8784C35.3225 43.1207 38.496 46.2452 42.7273 46.2452C45.0717 46.2452 46.787 45.8152 47.7305 45.2992V39.4804C46.8156 39.853 42.2984 41.1716 42.2984 36.9292V26.7534H47.7305V20.6478H42.2984L42.327 14.4277Z" fill="#635BFF"/>
<path fill-rule="evenodd" clip-rule="evenodd" d="M23.0003 27.9286C23.0003 26.8107 23.9151 26.3808 25.4304 26.3808C27.6032 26.3808 30.3479 27.04 32.5207 28.2153V21.4791C30.1477 20.5332 27.8034 20.1606 25.4304 20.1606C19.6267 20.1606 15.767 23.199 15.767 28.2726C15.767 36.184 26.6312 34.9227 26.6312 38.3338C26.6312 39.6524 25.4876 40.0823 23.8866 40.0823C21.5136 40.0823 18.4831 39.1077 16.0815 37.7892V44.6113C18.7404 45.7579 21.4278 46.2452 23.8866 46.2452C29.8332 46.2452 33.9216 43.2927 33.9216 38.1618C33.893 29.6198 23.0003 31.139 23.0003 27.9286Z" fill="#635BFF"/>
</svg>
