<svg width="135" height="63" viewBox="0 0 135 63" fill="none" xmlns="http://www.w3.org/2000/svg">
<path d="M111.504 28.2111C112.813 28.2111 113.874 27.1513 113.874 25.8439C113.874 24.5366 112.813 23.4767 111.504 23.4767C110.196 23.4767 109.135 24.5366 109.135 25.8439C109.135 27.1513 110.196 28.2111 111.504 28.2111Z" fill="#222222"/>
<path d="M77.6631 35.938C78.8254 35.938 79.496 35.0671 79.4513 34.2185C79.4289 33.7718 79.3842 33.4815 79.3395 33.2582C78.6242 30.1764 76.1208 27.8985 73.1479 27.8985C69.6163 27.8985 66.7552 31.092 66.7552 35.0224C66.7552 38.9528 69.6163 42.1463 73.1479 42.1463C75.3608 42.1463 76.9478 41.3424 78.0878 40.0694C78.6466 39.4441 78.5348 38.4839 77.8643 38.0149C77.3054 37.6352 76.6125 37.7692 76.0984 38.1935C75.6067 38.6179 74.6679 39.4665 73.1479 39.4665C71.3597 39.4665 69.8398 37.9256 69.5045 35.8934H77.6631V35.938ZM73.1256 30.6007C74.7349 30.6007 76.1208 31.8513 76.6349 33.5708H69.6163C70.1304 31.8289 71.5162 30.6007 73.1256 30.6007Z" fill="#222222"/>
<path d="M66.8893 29.3054C66.8893 28.6354 66.3976 28.0995 65.7717 27.9878C63.8271 27.6975 61.9942 28.4121 60.9436 29.7297V29.5511C60.9436 28.7248 60.2731 28.2111 59.6025 28.2111C58.8649 28.2111 58.2614 28.8141 58.2614 29.5511V40.4937C58.2614 41.2084 58.7978 41.8337 59.5131 41.8783C60.2954 41.923 60.9436 41.32 60.9436 40.5384V34.8884C60.9436 32.3872 62.8212 30.3327 65.4141 30.623C65.5035 30.623 65.5929 30.623 65.6823 30.623C66.3529 30.5783 66.8893 29.9977 66.8893 29.3054Z" fill="#222222"/>
<path d="M112.846 30.7346C112.846 29.9977 112.242 29.3947 111.504 29.3947C110.767 29.3947 110.163 29.9977 110.163 30.7346C110.163 30.7793 110.163 40.1141 110.163 40.5384C110.163 41.2753 110.767 41.8783 111.504 41.8783C112.242 41.8783 112.846 41.2753 112.846 40.5384C112.846 40.1364 112.846 30.8016 112.846 30.7346Z" fill="#222222"/>
<path d="M92.9073 23.3204C92.9073 22.5834 92.3038 21.9805 91.5662 21.9805C90.8286 21.9805 90.2251 22.5834 90.2251 23.3204V29.283C89.3086 28.3674 88.1686 27.9208 86.8052 27.9208C83.2735 27.9208 80.4124 31.1143 80.4124 35.0447C80.4124 38.9751 83.2735 42.1686 86.8052 42.1686C88.1686 42.1686 89.331 41.6996 90.2474 40.784C90.3592 41.4093 90.918 41.8783 91.5662 41.8783C92.3038 41.8783 92.9073 41.2753 92.9073 40.5384V23.3204ZM86.8275 39.5111C84.7711 39.5111 83.117 37.5235 83.117 35.0447C83.117 32.5882 84.7711 30.5783 86.8275 30.5783C88.8839 30.5783 90.538 32.5658 90.538 35.0447C90.538 37.5235 88.8616 39.5111 86.8275 39.5111Z" fill="#222222"/>
<path d="M106.9 23.3204C106.9 22.5834 106.296 21.9805 105.559 21.9805C104.821 21.9805 104.218 22.5834 104.218 23.3204V29.283C103.301 28.3674 102.161 27.9208 100.798 27.9208C97.266 27.9208 94.4049 31.1143 94.4049 35.0447C94.4049 38.9751 97.266 42.1686 100.798 42.1686C102.161 42.1686 103.323 41.6996 104.24 40.784C104.352 41.4093 104.91 41.8783 105.559 41.8783C106.296 41.8783 106.9 41.2753 106.9 40.5384V23.3204ZM100.798 39.5111C98.7412 39.5111 97.0872 37.5235 97.0872 35.0447C97.0872 32.5882 98.7412 30.5783 100.798 30.5783C102.854 30.5783 104.508 32.5658 104.508 35.0447C104.508 37.5235 102.854 39.5111 100.798 39.5111Z" fill="#222222"/>
<path d="M119.641 40.5607V30.6006H120.825C121.451 30.6006 122.01 30.1317 122.055 29.484C122.099 28.7917 121.541 28.2111 120.87 28.2111H119.641V26.3352C119.641 25.6206 119.104 24.9953 118.389 24.9506C117.607 24.906 116.958 25.5089 116.958 26.2906V28.2334H115.841C115.215 28.2334 114.656 28.7024 114.611 29.35C114.567 30.0423 115.125 30.623 115.796 30.623H116.936V40.583C116.936 41.32 117.539 41.923 118.277 41.923C119.059 41.8783 119.641 41.2977 119.641 40.5607Z" fill="#222222"/>
<path d="M32.0198 50.3868C42.3647 50.3868 50.7509 42.0082 50.7509 31.6726C50.7509 21.337 42.3647 12.9584 32.0198 12.9584C21.6748 12.9584 13.2886 21.337 13.2886 31.6726C13.2886 42.0082 21.6748 50.3868 32.0198 50.3868Z" fill="#222222"/>
<path d="M44.5147 31.6726C44.5147 30.154 43.2853 28.948 41.7877 28.948C41.0501 28.948 40.3795 29.2384 39.8878 29.7073C38.0102 28.3674 35.4397 27.4965 32.5786 27.3848L33.8303 21.5338L37.8984 22.4048C37.9431 23.432 38.7925 24.2583 39.8431 24.2583C40.916 24.2583 41.7877 23.3874 41.7877 22.3154C41.7877 21.2435 40.916 20.3726 39.8431 20.3726C39.0831 20.3726 38.4125 20.8192 38.0996 21.4668L33.5621 20.5066C33.428 20.4842 33.2939 20.5066 33.2045 20.5735C33.0927 20.6405 33.0256 20.7522 33.0033 20.8862L31.6174 27.4071C28.7117 27.4965 26.0964 28.3674 24.1965 29.7297C23.7047 29.2607 23.0342 28.9704 22.2966 28.9704C20.7766 28.9704 19.5696 30.1986 19.5696 31.6949C19.5696 32.8115 20.2401 33.7494 21.1789 34.1737C21.1342 34.4417 21.1119 34.7097 21.1119 35C21.1119 39.1984 26.007 42.6152 32.0421 42.6152C38.0772 42.6152 42.9724 39.2208 42.9724 35C42.9724 34.732 42.95 34.4417 42.9053 34.1737C43.8441 33.7494 44.5147 32.7891 44.5147 31.6726ZM25.7835 33.6154C25.7835 32.5435 26.6552 31.6726 27.7282 31.6726C28.8011 31.6726 29.6728 32.5435 29.6728 33.6154C29.6728 34.6874 28.8011 35.5583 27.7282 35.5583C26.6552 35.5806 25.7835 34.6874 25.7835 33.6154ZM36.6691 38.7741C35.3279 40.114 32.7798 40.2034 32.0421 40.2034C31.2822 40.2034 28.734 40.0917 27.4152 38.7741C27.214 38.5731 27.214 38.2605 27.4152 38.0595C27.6164 37.8585 27.9293 37.8585 28.1305 38.0595C28.9799 38.9081 30.7681 39.1984 32.0421 39.1984C33.3162 39.1984 35.1267 38.9081 35.9538 38.0595C36.1549 37.8585 36.4679 37.8585 36.6691 38.0595C36.8479 38.2605 36.8479 38.5731 36.6691 38.7741ZM36.3114 35.5806C35.2385 35.5806 34.3668 34.7097 34.3668 33.6378C34.3668 32.5658 35.2385 31.6949 36.3114 31.6949C37.3843 31.6949 38.2561 32.5658 38.2561 33.6378C38.2561 34.6874 37.3843 35.5806 36.3114 35.5806Z" fill="white"/>
</svg>
