<svg width="122" height="40" viewBox="0 0 122 40" fill="none" xmlns="http://www.w3.org/2000/svg">
<path d="M98.4192 15.5753L109.908 3.93956C109.939 3.89219 109.987 3.82901 110.045 3.78161C110.729 3.09191 111.829 3.09191 112.509 3.78161C113.188 4.47135 113.188 5.58753 112.509 6.27726L101.036 17.913C100.989 17.9762 100.941 18.0236 100.883 18.0868C100.199 18.7765 99.0984 18.7765 98.4192 18.0868C97.7347 17.397 97.7347 16.2703 98.4192 15.5753ZM111.503 35.6142L107.707 39.4629C107.022 40.1524 105.906 40.1524 105.227 39.4629C104.548 38.7731 104.548 37.657 105.227 36.9672L105.243 36.9515L109.028 33.1185L109.044 33.1028C109.723 32.413 110.829 32.413 111.508 33.1028C112.187 33.7923 112.187 34.9244 111.503 35.6142ZM116.963 20.6508L121.491 16.065C122.17 15.3752 122.17 14.2433 121.491 13.5535C120.806 12.8638 119.706 12.8638 119.027 13.5535L119.011 13.5693L114.499 18.1394C113.82 18.8291 113.82 19.9611 114.499 20.6508C115.178 21.3406 116.278 21.3406 116.963 20.6508ZM102.7 30.1174L110.655 22.0461C110.703 21.9829 110.75 21.9355 110.792 21.8881C111.471 21.1984 112.593 21.1984 113.272 21.8881C113.957 22.5778 113.957 23.694 113.272 24.389L105.301 32.4603C105.253 32.5236 105.206 32.5709 105.164 32.6342C104.479 33.3237 103.363 33.3237 102.684 32.6342C101.999 31.9444 101.999 30.8123 102.684 30.1227H102.7V30.1174ZM112.84 10.3945L101.215 22.1724L101.199 22.1882C100.515 22.8779 100.515 23.9941 101.199 24.6839C101.884 25.3735 103 25.3735 103.679 24.6839L115.325 12.8901C116.01 12.2004 116.01 11.0684 115.325 10.3787C114.646 9.68901 113.541 9.68901 112.845 10.3787V10.3945H112.84ZM100.825 3.69211L89.2582 15.4226V15.4384C88.5737 16.1282 88.5737 17.2443 89.2582 17.9341C89.9374 18.6238 91.0535 18.6238 91.738 17.9341L103.321 6.20355H103.305C103.985 5.49803 103.985 4.38185 103.305 3.69211C102.621 3.00238 101.52 3.00238 100.841 3.69211H100.825ZM86.2043 9.09406L94.4546 0.754218C94.5179 0.675242 94.5811 0.596266 94.6391 0.51729C95.3392 -0.17243 96.4397 -0.17243 97.1188 0.51729C97.8033 1.20701 97.8033 2.3232 97.1188 3.02872L88.8685 11.3843C88.8053 11.4633 88.7422 11.5423 88.6843 11.6055C87.9839 12.2952 86.8837 12.2952 86.2043 11.6055C85.5198 10.9158 85.5198 9.79956 86.2043 9.10985V9.09406Z" fill="#961CA5"/>
<path d="M30.1951 26.49C30.1951 26.4533 30.1582 26.943 30.0899 27.9642C29.9476 30.002 29.8738 32.0394 29.8738 34.0718C29.8738 34.3297 29.9107 34.793 29.9793 35.4618C30.0476 36.1356 30.0845 36.9466 30.0845 37.8889V38.3786C30.0845 38.8525 29.9423 39.0893 29.6579 39.0893C29.3738 39.0893 29.121 38.8155 28.9104 38.2733C28.4102 36.9992 27.9152 36.2199 27.415 35.9251C24.851 38.2153 21.7657 39.3631 18.1697 39.3631C12.931 39.3631 8.59256 37.4992 5.15448 33.7717C1.71641 30.044 0 25.3422 0 19.6719C0 13.9646 1.57425 9.29974 4.728 5.68265C7.88178 2.06557 11.9517 0.254395 16.9377 0.254395C18.7541 0.254395 20.2072 0.407083 21.2918 0.717721C22.3764 1.02836 23.7243 1.6549 25.3249 2.59735C26.1093 3.07119 26.6938 3.30811 27.0886 3.30811C27.4099 3.30811 27.71 3.01853 27.9995 2.43413C28.4628 1.41797 28.8365 0.907262 29.121 0.907262C29.4054 0.907262 29.5473 1.05468 29.5473 1.34426C29.5473 1.49168 29.5106 1.72861 29.4421 2.05504C29.0473 3.80303 28.8525 7.07262 28.8525 11.8744C28.8525 12.5641 28.7999 12.9642 28.6946 13.0748C28.5891 13.1854 28.4471 13.238 28.268 13.238C27.9099 13.238 27.6784 12.8905 27.5731 12.2008C27.1098 9.29448 26.4517 7.13054 25.5934 5.70899C23.8454 2.7974 21.1023 1.34426 17.3641 1.34426C14.4789 1.34426 12.1991 2.32882 10.5248 4.28742C7.49744 7.81501 5.9811 12.98 5.9811 19.7825C5.9811 25.8582 7.22891 30.5652 9.71927 33.9086C11.8937 36.8201 14.779 38.2733 18.375 38.2733C20.2283 38.2733 21.9184 37.7993 23.4505 36.857C24.9826 35.9094 26.1672 34.6141 27.0043 32.9557C27.8416 31.3023 28.4891 29.3122 28.9524 26.985C29.1316 26.111 29.3631 25.674 29.6475 25.674C30.016 25.674 30.1951 25.9478 30.1951 26.49Z" fill="#961CA5"/>
<path d="M47.9857 38.2461C47.9857 38.5568 47.7696 38.7094 47.3432 38.7094H46.8063C46.5905 38.5988 44.158 38.5462 39.5089 38.5462C38.6139 38.5462 37.7187 38.5832 36.829 38.6568C36.3657 38.6937 35.6496 38.7094 34.6809 38.7094C34.2176 38.7094 33.9858 38.5462 33.9858 38.2198C33.9858 37.9303 34.4492 37.7671 35.3758 37.7302C36.8027 37.6932 37.6397 37.5196 37.8872 37.2089C38.1347 36.8984 38.2612 35.8506 38.2612 34.0603V5.28171C38.2612 3.49688 38.1716 2.49124 37.9925 2.27011C37.7766 1.90682 36.7817 1.68569 35.0177 1.61198C34.3333 1.58039 33.9912 1.45403 33.9912 1.22763C33.9912 0.938053 34.207 0.795898 34.6387 0.795898H41.9361C42.4783 0.795898 43.5208 0.816959 45.0687 0.848548L47.1221 0.795898C47.7013 0.795898 47.9857 0.948585 47.9857 1.25922C47.9857 1.53301 47.18 1.70675 45.5743 1.7752C44.658 1.81205 44.1054 1.97527 43.9052 2.26485C43.7051 2.55443 43.6051 3.31785 43.6051 4.55514V33.6866C43.6051 35.761 43.6947 36.8878 43.8736 37.0667C44.2686 37.467 45.4427 37.7038 47.3906 37.7775C47.7909 37.7828 47.9857 37.9407 47.9857 38.2461Z" fill="#961CA5"/>
<path d="M84.4877 19.9977C84.4877 25.4155 82.8925 30.0013 79.707 33.7448C76.5165 37.4935 72.6098 39.3625 67.9767 39.3625C63.0591 39.3625 58.926 37.4619 55.5775 33.6605C52.2288 29.8591 50.5547 25.1785 50.5547 19.6134C50.5547 13.9377 52.1658 9.29387 55.393 5.67678C58.6152 2.05971 62.7431 0.248535 67.7659 0.248535C72.5045 0.248535 76.4745 2.13869 79.6807 5.92426C82.8819 9.70982 84.4877 14.401 84.4877 19.9977ZM78.5016 20.2768C78.5016 13.6007 77.164 8.40409 74.4947 4.68171C72.8203 2.34929 70.4881 1.18045 67.4921 1.18045C64.6439 1.18045 62.4326 2.0755 60.8635 3.86035C57.9783 7.14575 56.5358 12.4845 56.5358 19.8924C56.5358 25.7629 57.5413 30.3277 59.5525 33.5709C61.5639 36.8194 64.3911 38.4412 68.024 38.4412C71.4094 38.4412 73.9577 36.909 75.6635 33.8447C77.559 30.4489 78.5016 25.9261 78.5016 20.2768Z" fill="#961CA5"/>
</svg>
