<svg width="122" height="40" viewBox="0 0 122 40" fill="none" xmlns="http://www.w3.org/2000/svg">
<path d="M98.419 15.5753L109.907 3.93956C109.939 3.89219 109.986 3.82901 110.044 3.78161C110.729 3.09191 111.829 3.09191 112.508 3.78161C113.188 4.47135 113.188 5.58753 112.508 6.27726L101.036 17.913C100.988 17.9762 100.941 18.0236 100.883 18.0868C100.199 18.7765 99.0982 18.7765 98.419 18.0868C97.7345 17.397 97.7345 16.2703 98.419 15.5753ZM111.503 35.6142L107.707 39.4629C107.022 40.1524 105.906 40.1524 105.227 39.4629C104.548 38.7731 104.548 37.657 105.227 36.9672L105.242 36.9515L109.028 33.1185L109.044 33.1028C109.723 32.413 110.829 32.413 111.508 33.1028C112.187 33.7923 112.187 34.9244 111.503 35.6142ZM116.962 20.6508L121.491 16.065C122.17 15.3752 122.17 14.2433 121.491 13.5535C120.806 12.8638 119.706 12.8638 119.026 13.5535L119.011 13.5693L114.499 18.1394C113.819 18.8291 113.819 19.9611 114.499 20.6508C115.178 21.3406 116.278 21.3406 116.962 20.6508ZM102.7 30.1174L110.655 22.0461C110.703 21.9829 110.75 21.9355 110.792 21.8881C111.471 21.1984 112.592 21.1984 113.272 21.8881C113.956 22.5778 113.956 23.694 113.272 24.389L105.3 32.4603C105.253 32.5236 105.206 32.5709 105.163 32.6342C104.479 33.3237 103.363 33.3237 102.684 32.6342C101.999 31.9444 101.999 30.8123 102.684 30.1227H102.7V30.1174ZM112.84 10.3945L101.215 22.1724L101.199 22.1882C100.515 22.8779 100.515 23.9941 101.199 24.6839C101.883 25.3735 103 25.3735 103.679 24.6839L115.325 12.8901C116.009 12.2004 116.009 11.0684 115.325 10.3787C114.646 9.68901 113.54 9.68901 112.845 10.3787V10.3945H112.84ZM100.825 3.69211L89.258 15.4226V15.4384C88.5735 16.1282 88.5735 17.2443 89.258 17.9341C89.9371 18.6238 91.0533 18.6238 91.7378 17.9341L103.321 6.20355H103.305C103.984 5.49803 103.984 4.38185 103.305 3.69211C102.62 3.00238 101.52 3.00238 100.841 3.69211H100.825ZM86.204 9.09406L94.4544 0.754218C94.5176 0.675242 94.5809 0.596266 94.6388 0.51729C95.339 -0.17243 96.4395 -0.17243 97.1186 0.51729C97.8031 1.20701 97.8031 2.3232 97.1186 3.02872L88.8683 11.3843C88.805 11.4633 88.742 11.5423 88.6841 11.6055C87.9837 12.2952 86.8835 12.2952 86.204 11.6055C85.5196 10.9158 85.5196 9.79956 86.204 9.10985V9.09406Z" fill="#F9F9F9"/>
<path d="M30.1951 26.49C30.1951 26.4533 30.1582 26.9429 30.0899 27.9642C29.9476 30.0019 29.8738 32.0394 29.8738 34.0718C29.8738 34.3296 29.9107 34.7929 29.9793 35.4617C30.0476 36.1356 30.0845 36.9466 30.0845 37.8889V38.3785C30.0845 38.8524 29.9423 39.0893 29.6579 39.0893C29.3738 39.0893 29.121 38.8155 28.9104 38.2732C28.4102 36.9992 27.9152 36.2198 27.415 35.925C24.851 38.2153 21.7657 39.3631 18.1697 39.3631C12.931 39.3631 8.59256 37.4992 5.15448 33.7717C1.71641 30.0439 0 25.3422 0 19.6718C0 13.9645 1.57425 9.2997 4.728 5.68261C7.88178 2.06553 11.9517 0.254349 16.9377 0.254349C18.7541 0.254349 20.2072 0.407037 21.2918 0.717675C22.3764 1.02831 23.7243 1.65485 25.3249 2.59731C26.1093 3.07115 26.6938 3.30807 27.0886 3.30807C27.4099 3.30807 27.71 3.01849 27.9995 2.43408C28.4628 1.41792 28.8365 0.907217 29.121 0.907217C29.4054 0.907217 29.5473 1.05464 29.5473 1.34421C29.5473 1.49163 29.5106 1.72856 29.4421 2.055C29.0473 3.80298 28.8525 7.07257 28.8525 11.8743C28.8525 12.564 28.7999 12.9642 28.6946 13.0747C28.5891 13.1853 28.4471 13.2379 28.268 13.2379C27.9099 13.2379 27.6784 12.8905 27.5731 12.2007C27.1098 9.29443 26.4517 7.1305 25.5934 5.70895C23.8454 2.79736 21.1023 1.34421 17.3641 1.34421C14.4789 1.34421 12.1991 2.32878 10.5248 4.28738C7.49744 7.81496 5.9811 12.98 5.9811 19.7824C5.9811 25.8581 7.22891 30.5652 9.71927 33.9086C11.8937 36.82 14.779 38.2732 18.375 38.2732C20.2283 38.2732 21.9184 37.7993 23.4505 36.857C24.9826 35.9094 26.1672 34.614 27.0043 32.9556C27.8416 31.3023 28.4891 29.3121 28.9524 26.9849C29.1316 26.1109 29.3631 25.6739 29.6475 25.6739C30.016 25.6739 30.1951 25.9477 30.1951 26.49Z" fill="#F9F9F9"/>
<path d="M47.9859 38.2462C47.9859 38.5569 47.7698 38.7095 47.3435 38.7095H46.8065C46.5907 38.5989 44.1582 38.5463 39.5091 38.5463C38.6141 38.5463 37.7189 38.5832 36.8292 38.6569C36.3659 38.6938 35.6498 38.7095 34.6811 38.7095C34.2178 38.7095 33.986 38.5463 33.986 38.2199C33.986 37.9304 34.4494 37.7672 35.376 37.7302C36.8029 37.6933 37.6399 37.5197 37.8874 37.209C38.1349 36.8985 38.2614 35.8507 38.2614 34.0604V5.28177C38.2614 3.49694 38.1718 2.4913 37.9927 2.27017C37.7768 1.90688 36.7819 1.68575 35.0179 1.61204C34.3335 1.58045 33.9914 1.45409 33.9914 1.22769C33.9914 0.938114 34.2072 0.795959 34.6389 0.795959H41.9363C42.4785 0.795959 43.5211 0.81702 45.0689 0.848609L47.1223 0.795959C47.7015 0.795959 47.9859 0.948646 47.9859 1.25928C47.9859 1.53307 47.1802 1.70681 45.5745 1.77526C44.6582 1.81211 44.1056 1.97533 43.9054 2.26491C43.7053 2.5545 43.6053 3.31791 43.6053 4.5552V33.6867C43.6053 35.7611 43.6949 36.8879 43.8738 37.0668C44.2688 37.4671 45.4429 37.7039 47.3908 37.7775C47.7911 37.7829 47.9859 37.9408 47.9859 38.2462Z" fill="#F9F9F9"/>
<path d="M84.4878 19.9978C84.4878 25.4155 82.8926 30.0013 79.7071 33.7448C76.5165 37.4936 72.6099 39.3625 67.9767 39.3625C63.0592 39.3625 58.926 37.4619 55.5776 33.6605C52.2288 29.8591 50.5547 25.1786 50.5547 19.6134C50.5547 13.9377 52.1658 9.29392 55.3931 5.67683C58.6153 2.05976 62.7431 0.248581 67.7659 0.248581C72.5046 0.248581 76.4745 2.13873 79.6808 5.9243C82.882 9.70986 84.4878 14.401 84.4878 19.9978ZM78.5016 20.2768C78.5016 13.6007 77.164 8.40413 74.4947 4.68176C72.8204 2.34934 70.4881 1.18049 67.4921 1.18049C64.6439 1.18049 62.4326 2.07555 60.8635 3.86039C57.9784 7.1458 56.5358 12.4845 56.5358 19.8925C56.5358 25.7629 57.5414 30.3278 59.5525 33.571C61.564 36.8195 64.3912 38.4412 68.024 38.4412C71.4094 38.4412 73.9578 36.909 75.6635 33.8447C77.559 30.449 78.5016 25.9262 78.5016 20.2768Z" fill="#F9F9F9"/>
</svg>
